<svg width="48" height="48" viewBox="0 0 48 48" fill="none" xmlns="http://www.w3.org/2000/svg">
<path d="M28.0871 14C28.5305 14 28.8899 14.3263 28.89 14.7285V15.8546H31.1529V16.2274C31.153 15.8846 31.1534 15.8568 31.1537 15.8546H31.1718C31.18 15.8547 31.1911 15.8549 31.2031 15.8553C31.2274 15.856 31.2596 15.8578 31.298 15.8603C31.3752 15.8653 31.4808 15.875 31.6046 15.8937C31.8487 15.9307 32.1872 16.0058 32.5345 16.1633C32.8851 16.3225 33.2605 16.573 33.546 16.9615C33.8348 17.3548 34 17.8469 34 18.4376V31.4169H33.1971L34 31.4177V31.434C33.9999 31.4415 33.9996 31.4515 33.9992 31.4625C33.9984 31.4846 33.9965 31.5137 33.9937 31.5486C33.9882 31.6186 33.9775 31.7143 33.9569 31.8267C33.9162 32.0482 33.8334 32.3551 33.6597 32.6704C33.4844 32.9885 33.2082 33.329 32.7799 33.5881C32.3465 33.8502 31.8041 33.9999 31.1529 34H16.8471V33.2715C16.8471 33.972 16.8467 33.999 16.8463 34H16.8282C16.82 33.9999 16.809 33.9997 16.7969 33.9993C16.7726 33.9986 16.7404 33.9968 16.702 33.9943C16.6249 33.9893 16.5192 33.9796 16.3954 33.9609C16.1513 33.924 15.8129 33.8488 15.4655 33.6913C15.1149 33.5322 14.7396 33.2816 14.454 32.8931C14.1651 32.4998 14 32.0078 14 31.4169V18.4376H14.8029C14.0665 18.4376 14.0051 18.4373 14 18.4369V18.4206C14.0001 18.4131 14.0004 18.4031 14.0008 18.3921C14.0016 18.37 14.0035 18.3409 14.0063 18.306C14.0118 18.236 14.0225 18.1403 14.0431 18.0279C14.0838 17.8063 14.1665 17.4995 14.3403 17.1842C14.5157 16.866 14.7916 16.5256 15.2201 16.2665C15.6535 16.0044 16.1958 15.8546 16.8471 15.8546H19.1092V14.7285C19.1093 14.3263 19.4688 14 19.9121 14C20.3554 14 20.7149 14.3263 20.715 14.7285V15.8546H27.2842V14.7285C27.2844 14.3263 27.6438 14 28.0871 14ZM15.6058 22.8739V31.4169C15.6059 31.7527 15.696 31.9568 15.7901 32.0849C15.8876 32.2175 16.0237 32.3154 16.1837 32.388C16.347 32.462 16.5207 32.5029 16.6597 32.5239C16.727 32.534 16.7821 32.5387 16.8165 32.5409C16.8329 32.542 16.8447 32.5429 16.8502 32.5431H31.1529C31.5229 32.543 31.748 32.4613 31.8892 32.3759C32.0353 32.2875 32.1432 32.164 32.2232 32.0188C32.3049 31.8706 32.3498 31.7131 32.373 31.587C32.3842 31.5258 32.3893 31.476 32.3918 31.4447C32.3928 31.4321 32.3939 31.4227 32.3942 31.4169V22.8739H15.6058ZM16.8471 17.3115C16.477 17.3115 16.2521 17.3933 16.1108 17.4787C15.9646 17.5671 15.8569 17.6905 15.7768 17.8358C15.6951 17.984 15.6502 18.1415 15.627 18.2676C15.6158 18.3288 15.6099 18.3786 15.6074 18.4099C15.6062 18.4249 15.606 18.4355 15.6058 18.4405V21.4169H32.3942V18.4376C32.3942 18.1021 32.3039 17.8979 32.2099 17.7697C32.1125 17.6371 31.9762 17.5393 31.8163 17.4666C31.6531 17.3926 31.4793 17.3518 31.3403 17.3307C31.2731 17.3206 31.218 17.3152 31.1835 17.3129C31.1673 17.3119 31.1555 17.3117 31.1498 17.3115H28.89V18.4369C28.89 18.8393 28.5306 19.1654 28.0871 19.1654C27.6437 19.1654 27.2842 18.8392 27.2842 18.4369V17.3115H20.715V18.4369C20.715 18.8392 20.3555 19.1654 19.9121 19.1654C19.4687 19.1654 19.1092 18.8393 19.1092 18.4369V17.3115H16.8471Z" fill="#B7BFCB"/>
</svg>
