<svg width="106" height="40" viewBox="0 0 106 40" fill="none" xmlns="http://www.w3.org/2000/svg">
<g clip-path="url(#clip0_55084_514)">
<path d="M88.9257 26.2549C91.8467 26.255 93.8873 28.2489 93.8873 31.2012V35.0186C93.8871 38.6112 91.7338 40.0028 88.9811 40.0029C86.7535 40.0029 84.9728 39.0809 84.3368 37.0127L84.3387 37.0107H85.6127C86.1175 38.3269 87.4099 38.8916 88.9831 38.8916C91.1183 38.8915 92.6346 37.8201 92.6347 35.0742V33.7207C91.9229 35.1688 90.4987 35.9785 88.7388 35.9785C86.1358 35.9785 83.9448 34.1738 83.9445 31.1455C83.9445 28.325 86.0045 26.2549 88.9257 26.2549ZM16.2313 26.4971H21.6815V27.6455H16.2313V32.3652C16.2315 34.0584 17.167 34.8662 18.6089 34.8662C20.0508 34.8662 20.9864 34.0769 20.9866 32.3652V32.1592H22.2032V32.3652C22.2029 34.8103 20.7422 36.0322 18.607 36.0322C16.4717 36.0322 14.9741 34.8104 14.9738 32.3652H14.9758V23.2051H16.2313V26.4971ZM48.4032 26.25C50.801 26.2502 52.6159 27.6435 53.1595 29.7119H51.8865C51.3798 28.3193 50.0892 27.4162 48.4032 27.416C46.1939 27.416 44.6961 28.9969 44.6961 31.1416C44.6964 33.2859 46.1942 34.8662 48.4032 34.8662C50.0891 34.8661 51.3797 33.9637 51.8865 32.5713H53.1595C52.6157 34.6393 50.8008 36.0321 48.4032 36.0322C45.4823 36.0322 43.4224 33.9637 43.4221 31.1436V31.1416C43.4221 28.3211 45.4821 26.25 48.4032 26.25ZM28.3833 26.25C31.3045 26.25 33.3275 28.319 33.3275 31.1416V31.5557H24.6957C24.8642 33.4918 26.3058 34.8661 28.3833 34.8662C29.8437 34.8662 30.9688 34.2646 31.5678 33.1914H32.9333C32.2213 34.9031 30.535 36.0303 28.3833 36.0303C25.4626 36.0301 23.4036 33.9616 23.4032 31.1416C23.4032 28.3212 25.4624 26.2502 28.3833 26.25ZM59.2628 26.25C62.1839 26.25 64.2439 28.319 64.2439 31.1416C64.2435 33.9638 62.1837 36.0303 59.2628 36.0303C56.342 36.0302 54.283 33.9617 54.2826 31.1416C54.2826 28.3211 56.3417 26.25 59.2628 26.25ZM77.9162 26.25C80.8371 26.2502 82.8594 28.3192 82.8594 31.1416V31.5557H74.2276C74.3961 33.4919 75.8384 34.8662 77.9162 34.8662C79.3764 34.8661 80.5007 34.2645 81.0997 33.1914H82.4662C81.7543 34.9031 80.0677 36.0301 77.9162 36.0303C74.9953 36.0303 72.9355 33.9617 72.9351 31.1416C72.9351 28.3211 74.9951 26.25 77.9162 26.25ZM100.333 26.25C103.254 26.2501 105.276 28.3191 105.276 31.1416V31.5557H96.6446C96.8131 33.4919 98.2554 34.8662 100.333 34.8662C101.793 34.8662 102.918 34.2645 103.517 33.1914H104.883C104.171 34.9032 102.485 36.0302 100.333 36.0303C97.4123 36.0303 95.3524 33.9617 95.3521 31.1416C95.3521 28.3211 97.412 26.25 100.333 26.25ZM1.79207 35.7871H0.444108V23.4873H1.79207V35.7871ZM8.56982 26.252C11.302 26.2521 13.1383 27.8515 13.1383 30.9355V35.7871H11.8828V30.9355C11.8828 28.6406 10.5718 27.4182 8.56787 27.418C6.56369 27.418 5.25199 28.6404 5.25199 30.9355V35.7871H3.99746V30.9355H4.00136C4.00136 27.8513 5.8374 26.252 8.56982 26.252ZM38.6833 26.252C40.987 26.252 42.5608 27.5506 42.5608 30.2393V30.3525H41.3257V30.2207C41.3257 28.2841 40.2586 27.418 38.6853 27.418C37.1121 27.4181 36.0458 28.2842 36.0458 30.2207V35.7871H34.7903V30.2207H34.7883C34.7883 27.5507 36.3798 26.2521 38.6833 26.252ZM67.3184 35.7871H66.0629V22.4326H67.3184V35.7871ZM71.12 35.7871H69.8645V22.4326H71.12V35.7871ZM59.2628 27.416C57.0515 27.416 55.5557 28.9969 55.5557 31.1416C55.556 33.2859 57.0538 34.8662 59.2628 34.8662C61.4718 34.8662 62.9715 33.2859 62.9719 31.1416C62.9719 28.9969 61.4742 27.416 59.2628 27.416ZM88.9257 27.418C86.7143 27.418 85.2185 28.9988 85.2185 31.1436C85.2188 33.2879 86.7166 34.8105 88.9257 34.8105C91.1347 34.8105 92.6344 33.2879 92.6347 31.1436C92.6347 28.9989 91.1369 27.4181 88.9257 27.418ZM28.3833 27.416C26.5106 27.4161 25.0137 28.6015 24.7327 30.4268H32.0165C31.717 28.5457 30.2562 27.416 28.3833 27.416ZM77.9162 27.416C76.0433 27.416 74.5456 28.6014 74.2645 30.4268H81.5484C81.2489 28.5459 79.7889 27.4162 77.9162 27.416ZM100.333 27.416C98.4603 27.416 96.9626 28.6014 96.6815 30.4268H103.966C103.667 28.5458 102.206 27.4161 100.333 27.416ZM102.278 -0.00195312C103.765 -0.0019284 104.902 0.313351 105.509 0.597656L104.844 3.93945C104.276 3.67574 103.531 3.50684 102.552 3.50684C99.9287 3.50695 97.834 5.29494 97.8339 10.5234C97.8339 15.3218 99.6952 17.042 101.515 17.042C101.847 17.042 102.122 17.0216 102.278 16.9434V12.127H100.497V8.94141H105.82V19.6221C104.979 19.9764 103.139 20.3281 101.691 20.3281C99.42 20.3281 97.717 19.6799 96.3857 18.3428C94.6831 16.6904 93.7831 13.7316 93.8221 10.291C93.9185 3.02653 98.0499 -0.00195312 102.278 -0.00195312ZM28.5254 20.1533H24.7667L23.9258 15.5918H20.3608L19.481 20.1533H15.7223L20.0484 0.198242H24.6684L28.5254 20.1533ZM39.1534 8.0127C39.7401 9.55587 40.7001 12.1025 41.2683 13.8516H41.3257C41.2088 11.748 40.9549 8.27814 40.9549 4.60059V0.198242H44.3408V20.1533H40.7982L37.7646 12.5742C37.0999 10.8827 36.1972 8.36653 35.7665 6.55762H35.709C35.7665 8.57255 35.9241 11.6693 35.9241 15.6807V20.1533H32.5382V0.198242H36.0808L39.1534 8.0127ZM52.9133 4.95508C53.264 6.23233 53.6584 7.70718 53.9517 9.19043H54.0111C54.245 7.73601 54.579 6.28973 54.9318 4.86621L56.126 0.198242H60.1183L55.6744 12.3682V20.1533H51.7999V12.5244L47.4329 0.198242H51.5614L52.9133 4.95508ZM73.702 20.1533H69.9443L69.0829 15.5918H65.5218L64.641 20.1533H60.8833L65.2074 0.198242H69.8275L73.702 20.1533ZM84.3144 8.0127C84.9011 9.55588 85.8612 12.1026 86.4273 13.8516H86.4867C86.3698 11.748 86.0945 8.27814 86.0945 4.60059V0.198242H89.5018V20.1533H85.9592L82.9051 12.5742C82.2589 10.8827 81.3583 8.36653 80.907 6.55762H80.8681C80.9276 8.57255 81.0832 11.6693 81.0832 15.6807V20.1533H77.6962V0.198242H81.2408L84.3144 8.0127ZM4.03347 8.18945H8.08708V0.198242H11.9626V20.1514H8.08708V11.8076H4.03347V20.1514H0.179382V0.198242H4.03347V8.18945ZM22.1827 3.86523C21.9858 5.19194 21.6924 7.26628 21.4791 8.43652L20.755 12.5762H23.5735L23.5706 12.5742L22.9244 8.3877C22.7295 7.1887 22.4555 5.19204 22.2791 3.86523H22.1827ZM67.3408 3.86523C67.1459 5.19199 66.8525 7.26633 66.6371 8.43652L65.913 12.5762H68.7316V12.5742L68.0854 8.3877C67.87 7.18868 67.6156 5.19204 67.4187 3.86523H67.3408Z" fill="#0C2CA7"/>
</g>
<defs>
<clipPath id="clip0_55084_514">
<rect width="105.641" height="40" fill="white" transform="translate(0.179504)"/>
</clipPath>
</defs>
</svg>
