<svg width="48" height="48" viewBox="0 0 48 48" fill="none" xmlns="http://www.w3.org/2000/svg">
<path d="M22.4264 14.6201C23.3201 13.7933 24.6799 13.7933 25.5736 14.6201L33.2251 21.6983C33.7192 22.1553 33.9999 22.805 34 23.4847V31.5935C33.9999 32.9162 32.9552 33.9998 31.6522 34H16.3478C15.0448 33.9998 14.0001 32.9162 14 31.5935V23.4847C14.0001 22.805 14.2808 22.1553 14.7749 21.6983L22.4264 14.6201ZM24.474 15.8555C24.2037 15.6055 23.7963 15.6055 23.526 15.8555L15.8738 22.9337C15.7231 23.0732 15.6357 23.2732 15.6356 23.4847V31.5935C15.6356 32.0079 15.9606 32.3325 16.3478 32.3327H31.6522C32.0394 32.3325 32.3644 32.0079 32.3644 31.5935V23.4847C32.3643 23.2732 32.2769 23.0732 32.1262 22.9337L24.474 15.8555Z" fill="#B7BFCB"/>
</svg>
