<svg width="48" height="48" viewBox="0 0 48 48" fill="none" xmlns="http://www.w3.org/2000/svg">
<path d="M31.6596 14C32.4821 14 33.1489 14.7288 33.1489 15.6279V18.4186C33.1489 19.2386 32.5939 19.9144 31.8723 20.0274V28.6512C31.8723 29.0703 31.7782 29.4648 31.6147 29.814H33.3617C33.7142 29.814 34 30.1263 34 30.5116C34 30.8969 33.7142 31.2093 33.3617 31.2093H24.6383V33.3023C24.6383 33.6876 24.3525 34 24 34C23.6475 34 23.3617 33.6876 23.3617 33.3023V31.2093H14.6383C14.2858 31.2093 14 30.8969 14 30.5116C14 30.1263 14.2858 29.814 14.6383 29.814H16.3853C16.2218 29.4648 16.1277 29.0703 16.1277 28.6512V20.0274C15.4061 19.9144 14.8511 19.2386 14.8511 18.4186V15.6279C14.8511 14.7288 15.5179 14 16.3404 14H31.6596ZM17.4043 28.6512C17.4043 29.2934 17.8805 29.814 18.4681 29.814H29.5319C30.1195 29.814 30.5957 29.2934 30.5957 28.6512V20.0465H17.4043V28.6512ZM16.3404 15.3953C16.2229 15.3953 16.1277 15.4995 16.1277 15.6279V18.4186C16.1277 18.547 16.2229 18.6512 16.3404 18.6512H31.6596C31.7771 18.6512 31.8723 18.547 31.8723 18.4186V15.6279C31.8723 15.4995 31.7771 15.3953 31.6596 15.3953H16.3404Z" fill="#B7BFCB"/>
</svg>
