<svg width="48" height="48" viewBox="0 0 48 48" fill="none" xmlns="http://www.w3.org/2000/svg">
<path d="M14 31.4419C14 32.8547 15.1453 34 16.5581 34L31.4419 34C32.8547 34 34 32.8547 34 31.4419L34 16.5581C34 15.1453 32.8547 14 31.4419 14L16.5581 14C15.1453 14 14 15.1453 14 16.5581L14 31.4419ZM15.3953 16.5581C15.3953 15.9159 15.9159 15.3953 16.5581 15.3953L31.4419 15.3953C32.0841 15.3953 32.6047 15.9159 32.6047 16.5581L32.6047 31.4419C32.6047 32.0841 32.0841 32.6046 31.4419 32.6047L16.5581 32.6047C15.9159 32.6047 15.3953 32.0841 15.3953 31.4419L15.3953 16.5581ZM17.2558 21.5173C17.2558 22.4163 17.9847 23.1452 18.8837 23.1452L29.1163 23.1452C30.0153 23.1452 30.7442 22.4163 30.7442 21.5173L30.7442 18.7266C30.7442 17.8275 30.0153 17.0987 29.1163 17.0987L18.8837 17.0987C17.9847 17.0987 17.2558 17.8275 17.2558 18.7266L17.2558 21.5173ZM18.6512 18.7266C18.6512 18.5981 18.7553 18.494 18.8837 18.494L29.1163 18.494C29.2447 18.494 29.3488 18.5981 29.3488 18.7266L29.3488 21.5173C29.3488 21.6457 29.2447 21.7498 29.1163 21.7498L18.8837 21.7498C18.7553 21.7498 18.6512 21.6457 18.6512 21.5173L18.6512 18.7266ZM17.2558 29.2734C17.2558 30.1725 17.9847 30.9013 18.8837 30.9013L23.0698 30.9013C23.9688 30.9013 24.6977 30.1725 24.6977 29.2734L24.6977 26.4827C24.6976 25.5837 23.9688 24.8548 23.0698 24.8548L18.8837 24.8548C17.9847 24.8548 17.2558 25.5837 17.2558 26.4827L17.2558 29.2734ZM18.6512 26.4827C18.6512 26.3543 18.7553 26.2502 18.8837 26.2502L23.0698 26.2502C23.1982 26.2502 23.3023 26.3543 23.3023 26.4827L23.3023 29.2734C23.3023 29.4019 23.1982 29.506 23.0698 29.506L18.8837 29.506C18.7553 29.506 18.6512 29.4019 18.6512 29.2734L18.6512 26.4827Z" fill="#B7BFCB"/>
</svg>
