<svg width="48" height="48" viewBox="0 0 48 48" fill="none" xmlns="http://www.w3.org/2000/svg">
<path d="M24 14C26.6522 14 29.1959 15.0534 31.0712 16.9288C32.9466 18.8041 34 21.3478 34 24C34 26.6522 32.9466 29.1959 31.0712 31.0712C29.1959 32.9466 26.6522 34 24 34C21.3478 34 18.8041 32.9466 16.9288 31.0712C15.0534 29.1959 14 26.6522 14 24C14 21.3478 15.0534 18.8041 16.9288 16.9288C18.8041 15.0534 21.3478 14 24 14ZM20.2373 27.4384C18.9059 27.4384 17.6358 27.6978 16.4737 28.167C16.8595 28.8641 17.3419 29.5112 17.9153 30.0847C19.529 31.6984 21.7179 32.6047 24 32.6047C24.0497 32.6047 24.0994 32.601 24.149 32.6001V28.9519C24.1488 28.4848 23.8866 28.1134 23.5303 27.9898C22.4741 27.6239 21.3612 27.4369 20.2382 27.4384H20.2373ZM27.2767 29.7367C26.6824 29.7367 26.1033 29.7978 25.5443 29.9139V32.462C27.2041 32.1592 28.7484 31.3737 29.9766 30.1873C29.1186 29.9074 28.1796 29.7368 27.2767 29.7367ZM24 15.3953C21.7179 15.3953 19.529 16.3016 17.9153 17.9153C16.3016 19.529 15.3953 21.7179 15.3953 24C15.3953 24.9959 15.5682 25.9739 15.8968 26.8943C17.2358 26.3458 18.7016 26.0441 20.2364 26.044L20.2373 26.0431V26.044C21.5163 26.0424 22.7834 26.255 23.9864 26.6717C24.8315 26.9645 25.3575 27.6976 25.5016 28.5022C26.0782 28.3973 26.6712 28.3414 27.2767 28.3414C28.54 28.3415 29.8361 28.6197 30.9604 29.0563C32.0214 27.5955 32.6047 25.8282 32.6047 24C32.6047 21.7179 31.6984 19.529 30.0847 17.9153C28.471 16.3016 26.2821 15.3953 24 15.3953ZM28.2142 21.0494C29.0082 21.0494 29.7702 21.3647 30.3318 21.9261C30.8933 22.4876 31.2092 23.2495 31.2093 24.0436C31.2093 24.8377 30.8933 25.5996 30.3318 26.1612C29.7702 26.7225 29.0082 27.0387 28.2142 27.0387C27.4203 27.0385 26.6581 26.7226 26.0967 26.1612C25.5354 25.5997 25.2201 24.8375 25.22 24.0436C25.2201 23.2497 25.5353 22.4875 26.0967 21.9261C26.6581 21.3646 27.4203 21.0496 28.2142 21.0494ZM28.2142 22.4448C27.7904 22.4449 27.3838 22.6138 27.0841 22.9135C26.7845 23.2133 26.6154 23.6197 26.6154 24.0436C26.6154 24.4676 26.7844 24.8748 27.0841 25.1746C27.3838 25.4742 27.7905 25.6432 28.2142 25.6434C28.6382 25.6434 29.0453 25.4743 29.3452 25.1746C29.6451 24.8747 29.8139 24.4677 29.814 24.0436C29.8139 23.6197 29.6449 23.2133 29.3452 22.9135C29.0453 22.6137 28.6382 22.4448 28.2142 22.4448ZM20.3799 18.3605C21.2782 18.3605 22.1403 18.7173 22.7754 19.3525C23.4104 19.9875 23.7673 20.849 23.7674 21.7471C23.7673 22.6452 23.4105 23.5075 22.7754 24.1426C22.1403 24.7776 21.278 25.1346 20.3799 25.1346C19.4819 25.1345 18.6203 24.7775 17.9853 24.1426C17.3502 23.5075 16.9934 22.6452 16.9933 21.7471C16.9934 20.8491 17.3504 19.9875 17.9853 19.3525C18.6203 18.7174 19.4818 18.3606 20.3799 18.3605ZM20.3799 19.7558C19.8519 19.756 19.3452 19.9657 18.9718 20.339C18.5986 20.7124 18.3887 21.2192 18.3886 21.7471C18.3887 22.2751 18.5984 22.7827 18.9718 23.1561C19.3452 23.5293 19.852 23.7391 20.3799 23.7393C20.908 23.7393 21.4154 23.5294 21.7889 23.1561C22.1623 22.7827 22.372 22.2751 22.3721 21.7471C22.372 21.2191 22.1622 20.7124 21.7889 20.339C21.4154 19.9655 20.9081 19.7558 20.3799 19.7558Z" fill="#B7BFCB"/>
</svg>
