<svg width="48" height="48" viewBox="0 0 48 48" fill="none" xmlns="http://www.w3.org/2000/svg">
<rect width="48" height="48" rx="10" fill="#0C2CA7" fill-opacity="0.2"/>
<path d="M31.2159 23.811C31.1934 23.2484 31.373 22.6513 31.8164 22.1974L32.326 21.6751C32.5334 21.4627 32.5716 21.1459 32.4211 20.8944L31.0002 18.5227C30.8479 18.2687 30.5382 18.1396 30.2386 18.21L29.4522 18.3949C28.834 18.5403 28.2168 18.4023 27.7254 18.1159C27.6348 18.063 27.5425 18.0117 27.4493 17.9626C26.9417 17.6953 26.5028 17.2454 26.3237 16.6486L26.0944 15.8858C26.0205 15.6395 25.8056 15.4578 25.5458 15.4164L25.4322 15.4075H22.6018C22.2935 15.4075 22.0254 15.6035 21.9403 15.8837L21.7174 16.6163C21.5349 17.2172 21.0893 17.6682 20.5755 17.9331C20.4667 17.9891 20.3593 18.0478 20.2539 18.109C19.7648 18.3929 19.1514 18.5304 18.5364 18.3873L17.7635 18.2073C17.4643 18.1377 17.1552 18.2671 17.0033 18.5207L15.5789 20.8985C15.4289 21.1491 15.4662 21.4647 15.6718 21.6771L16.1587 22.1802C16.5991 22.6349 16.7761 23.2319 16.7521 23.7931C16.7479 23.89 16.7457 23.9873 16.7457 24.0852C16.7457 24.1336 16.7468 24.1821 16.7478 24.2302C16.7594 24.7781 16.5788 25.3562 16.1488 25.7985L15.6385 26.3236C15.432 26.536 15.3944 26.8525 15.5448 27.1036L16.9771 29.4938C17.1269 29.744 17.4302 29.8734 17.7266 29.8092L18.3887 29.6663C19.0116 29.5314 19.6281 29.6818 20.1148 29.979C20.2693 30.0733 20.4277 30.1619 20.5897 30.2449C21.0916 30.5022 21.5301 30.9371 21.721 31.5191L21.9211 32.13C22.0108 32.4036 22.2756 32.5924 22.5784 32.5925H25.4549C25.7587 32.5925 26.0246 32.4027 26.1136 32.128L26.3201 31.4881C26.5073 30.9096 26.9391 30.4752 27.4351 30.2154C27.5811 30.1389 27.7241 30.0577 27.8638 29.9721C28.3529 29.6722 28.9735 29.5206 29.5998 29.658L30.2755 29.8065C30.5723 29.8716 30.8768 29.7424 31.0271 29.4917L32.4551 27.1077C32.6061 26.8557 32.5676 26.538 32.3593 26.3256L31.8263 25.782C31.3931 25.3404 31.2101 24.761 31.2202 24.2117C31.221 24.1697 31.2216 24.1274 31.2216 24.0852C31.2216 23.9934 31.2196 23.9019 31.2159 23.811ZM26.7083 23.9835C26.7082 22.5855 25.5312 21.447 24.0724 21.4469C22.6134 21.4469 21.4365 22.5855 21.4364 23.9835C21.4364 25.3817 22.6133 26.5208 24.0724 26.5208C25.5313 26.5207 26.7083 25.3816 26.7083 23.9835ZM32.6737 24.2371C32.6693 24.4778 32.7502 24.6797 32.8803 24.8123L33.4133 25.3566C34.0652 26.0212 34.1872 27.021 33.7121 27.8142L32.2848 30.1975C31.8141 30.9833 30.8688 31.3794 29.9547 31.1789L29.2783 31.0304C29.0881 30.9888 28.8592 31.0277 28.6417 31.161C28.474 31.2638 28.3023 31.3613 28.1271 31.4531C27.906 31.5689 27.7628 31.7363 27.707 31.9087L27.5004 32.5486C27.2204 33.4139 26.3904 34 25.4549 34H22.5784C21.6461 33.9999 20.8182 33.4175 20.5357 32.5561L20.3356 31.9452C20.2787 31.7717 20.1336 31.6043 19.9097 31.4895C19.7149 31.3897 19.5247 31.2826 19.3391 31.1693C19.1227 31.0371 18.8953 30.9984 18.706 31.0394L18.0438 31.183C17.1313 31.3807 16.189 30.9842 15.7194 30.2003L14.2879 27.81C13.8145 27.0199 13.9338 26.0243 14.5803 25.3594L15.0906 24.8343C15.2197 24.7015 15.2993 24.4992 15.2943 24.2591C15.293 24.2013 15.2921 24.1432 15.2921 24.0852C15.2921 23.9678 15.295 23.851 15.2999 23.7347C15.3105 23.4881 15.2305 23.2794 15.0984 23.143L14.6115 22.64C13.9675 21.9749 13.8494 20.9809 14.3219 20.192L15.7464 17.8142C16.2223 17.0199 17.1822 16.6246 18.1034 16.839L18.8763 17.019C19.0632 17.0624 19.2892 17.0277 19.5066 16.9015C19.6331 16.8281 19.7621 16.7578 19.8927 16.6905C20.1222 16.5722 20.2684 16.398 20.3228 16.2191L20.5457 15.4858C20.814 14.6032 21.6528 14 22.6018 14H25.4322L25.6097 14.0069C26.4871 14.0769 27.2412 14.6621 27.4905 15.4927L27.719 16.2555C27.7724 16.4333 27.9169 16.6069 28.1434 16.7263C28.2553 16.7852 28.3661 16.8463 28.4749 16.9098C28.6935 17.0372 28.9208 17.0714 29.1087 17.0273L29.8951 16.8424C30.8178 16.6253 31.7809 17.0209 32.2578 17.8169L33.678 20.1879C34.1524 20.9797 34.0316 21.9779 33.3821 22.6427L32.8725 23.1643C32.7394 23.3005 32.6581 23.5094 32.6681 23.7567C32.6724 23.8657 32.6752 23.9752 32.6752 24.0852C32.6752 24.1359 32.6747 24.1866 32.6737 24.2371ZM28.1619 23.9835C28.1619 26.1651 26.3277 27.9282 24.0724 27.9283C21.817 27.9283 19.9828 26.1652 19.9828 23.9835C19.983 21.8019 21.8171 20.0394 24.0724 20.0394C26.3276 20.0395 28.1617 21.802 28.1619 23.9835Z" fill="#0C2CA7"/>
</svg>
