<svg width="48" height="48" viewBox="0 0 48 48" fill="none" xmlns="http://www.w3.org/2000/svg">
<path d="M27.7209 17C28.62 17 29.3488 17.7077 29.3488 18.5806V20.2892L31.7671 19.3507C32.8363 18.9354 33.9997 19.6995 34 20.8175V27.1825C33.9997 28.3005 32.8363 29.0646 31.7671 28.6493L29.3488 27.7099V29.4194C29.3488 30.2923 28.62 31 27.7209 31H15.6279C14.7288 31 14 30.2923 14 29.4194V18.5806C14 17.7077 14.7288 17 15.6279 17H27.7209ZM15.6279 18.3548C15.4995 18.3548 15.3953 18.4559 15.3953 18.5806V29.4194C15.3953 29.5441 15.4995 29.6452 15.6279 29.6452H27.7209C27.8494 29.6452 27.9535 29.5441 27.9535 29.4194V25.7094L28.9101 26.0808L32.2858 27.3915C32.4384 27.4508 32.6044 27.342 32.6047 27.1825V20.8175C32.6044 20.658 32.4384 20.5492 32.2858 20.6085L28.9101 21.9192L27.9535 22.2906V18.5806C27.9535 18.4559 27.8494 18.3548 27.7209 18.3548H15.6279Z" fill="#B7BFCB"/>
</svg>
